<?xml version="1.0" encoding="UTF-8"?>
<svg width="140px" height="140px" viewBox="0 0 140 140" version="1.1" xmlns="http://www.w3.org/2000/svg" xmlns:xlink="http://www.w3.org/1999/xlink">
    <title>编组</title>
    <defs>
        <linearGradient x1="50%" y1="1.25013913%" x2="50%" y2="65.785099%" id="linearGradient-1">
            <stop stop-color="#F7F7F7" offset="0%"></stop>
            <stop stop-color="#E6E6E6" stop-opacity="0" offset="100%"></stop>
        </linearGradient>
    </defs>
    <g id="页面-1" stroke="none" stroke-width="1" fill="none" fill-rule="evenodd">
        <g id="漏洞管理备份" transform="translate(-1001.000000, -744.000000)" fill-rule="nonzero">
            <g id="编组" transform="translate(1001.000000, 744.000000)">
                <rect id="矩形" fill-opacity="0" fill="#FFFFFF" x="0" y="0" width="140" height="140"></rect>
                <circle id="椭圆形" fill="url(#linearGradient-1)" cx="70" cy="70" r="60"></circle>
                <path d="M70,124 C95.9573832,124 117,118.705412 117,114.896552 C117,111.087692 95.9573832,108 70,108 C44.0426167,108 23,111.087692 23,114.896552 C23,118.705412 44.0426167,124 70,124 Z" id="椭圆形" fill="#E6E6E6"></path>
                <g id="编组-3" transform="translate(41.000000, 36.000000)">
                    <rect id="矩形" fill="#EFEFEF" x="0" y="0" width="58" height="78" rx="4"></rect>
                    <path d="M67,40 C67,42.209139 69.6862915,44 73,44 C76.3137085,44 79,42.209139 79,40 C79,37.790861 76.3137085,36 73,36 C69.6862915,36 67,37.790861 67,40 Z" id="路径" fill="#F2F2F2"></path>
                    <path d="M82,58 C81.9997977,58.7144862 82.5715502,59.3747564 83.4998365,59.7320385 C84.4281228,60.0893205 85.5718772,60.0893205 86.5001635,59.7320385 C87.4284498,59.3747564 88.0002023,58.7144862 88,58 C88.0002023,57.2855138 87.4284498,56.6252436 86.5001635,56.2679615 C85.5718772,55.9106795 84.4281228,55.9106795 83.4998365,56.2679615 C82.5715502,56.6252436 81.9997977,57.2855138 82,58 L82,58 Z" id="路径" fill="#F2F2F2"></path>
                    <path d="M7,10 L51,10 L51,30 L7,30 L7,10 Z M7,42 L51,42 L51,46 L7,46 L7,42 Z M7,50 L51,50 L51,54 L7,54 L7,50 Z M7,58 L35,58 L35,62 L7,62 L7,58 Z" id="形状" fill="#D8D8D8"></path>
                    <polygon id="路径" fill="#FFFFFF" points="22.5555555 0 19 19.0769231 27.2962963 19.0769231 22.5555555 32.9230769 29.074074 32.9230769 22.0370371 54 39 26.7692307 31.4590774 26.7692307 36.7777778 12.6153847 29.6666666 12.6153847 33.5185185 0"></polygon>
                </g>
            </g>
        </g>
    </g>
</svg>