<?xml version="1.0" encoding="UTF-8"?>
<svg width="140px" height="140px" viewBox="0 0 140 140" version="1.1" xmlns="http://www.w3.org/2000/svg" xmlns:xlink="http://www.w3.org/1999/xlink">
    <title>编组</title>
    <defs>
        <linearGradient x1="50%" y1="1.25013913%" x2="50%" y2="65.785099%" id="linearGradient-1">
            <stop stop-color="#F7F7F7" offset="0%"></stop>
            <stop stop-color="#E6E6E6" stop-opacity="0" offset="100%"></stop>
        </linearGradient>
    </defs>
    <g id="页面-1" stroke="none" stroke-width="1" fill="none" fill-rule="evenodd">
        <g id="漏洞管理备份" transform="translate(-463.000000, -409.000000)">
            <g id="编组-15" transform="translate(274.000000, 369.000000)">
                <g id="编组" transform="translate(189.000000, 40.000000)">
                    <rect id="矩形" fill-opacity="0" fill="#FFFFFF" fill-rule="nonzero" x="0" y="0" width="140" height="140"></rect>
                    <circle id="椭圆形" fill="url(#linearGradient-1)" fill-rule="nonzero" cx="70" cy="70" r="60"></circle>
                    <path d="M70,124 C95.9573832,124 117,118.705412 117,114.896552 C117,111.087692 95.9573832,108 70,108 C44.0426167,108 23,111.087692 23,114.896552 C23,118.705412 44.0426167,124 70,124 Z" id="椭圆形" fill="#E6E6E6" fill-rule="nonzero"></path>
                    <g transform="translate(27.000000, 62.000000)">
                        <polygon id="路径" fill="#E6E6E6" fill-rule="nonzero" points="75 49.5 40 50.1943359 40 0.5 75 7"></polygon>
                        <polygon id="路径" fill="#CCCCCC" fill-rule="nonzero" points="9 49.5 40 42.9480544 40 0.5 9 7.05788581"></polygon>
                        <polygon id="路径" fill="#F2F2F2" fill-rule="nonzero" points="45 57 9 50.716569 9 7 45 14.2774524"></polygon>
                        <polygon id="矩形" fill="#D8D8D8" points="13 25.5 40 30.7 40 38.5 13 33.3"></polygon>
                        <polygon id="矩形" fill="#D8D8D8" points="13 37.5 40 42.75 40 44.5 13 39.25"></polygon>
                        <polygon id="矩形" fill="#D8D8D8" points="13 42.5 40 47.75 40 49.5 13 44.25"></polygon>
                        <polygon id="路径" fill="#E6E6E6" fill-rule="nonzero" points="34.970568 25.5 0 17.3994141 9 7 45 14.3096924"></polygon>
                        <polygon id="矩形" fill="#DCDCDC" fill-rule="nonzero" points="45 14.3096924 75 7 75 49.7310675 45 57"></polygon>
                        <polygon id="路径" fill="#F2F2F2" fill-rule="nonzero" points="86 18.8901367 75 7 45 14.2774524 54.4663574 26.5"></polygon>
                    </g>
                    <g id="paperplane_4_" transform="translate(33.813953, 10.279070)" fill-rule="nonzero">
                        <path d="M12.9440463,30.4327294 C12.4376361,30.4327294 11.9183261,30.4216709 11.4004903,30.3995535 C11.298766,30.3951301 11.2198928,30.3092417 11.223947,30.2075022 C11.2280012,30.1057631 11.3227228,30.0239294 11.4159701,30.0309332 C11.9290145,30.0526818 12.4431646,30.0637405 12.9440463,30.0637405 L13.2488507,30.062266 C13.2492193,30.062266 13.2499564,30.062266 13.250325,30.062266 C13.3513122,30.062266 13.433871,30.1437309 13.434618,30.2451016 C13.4353453,30.3468407 13.3538921,30.430149 13.2517992,30.4308863 L12.9440463,30.4327294 Z M15.0909455,30.3641661 C14.9943811,30.3641661 14.9136651,30.2893359 14.9070308,30.1916517 C14.9003967,30.0899126 14.977427,30.0021808 15.0791514,29.9959143 C15.6920773,29.9564719 16.3050032,29.8982298 16.9013435,29.8233999 C17.0034364,29.8116041 17.0944723,29.8823793 17.1073722,29.9833812 C17.120272,30.084383 17.0484015,30.1765382 16.9474144,30.1894399 C16.3437026,30.2653758 15.7230368,30.3243549 15.1027396,30.3641661 C15.0986854,30.3641661 15.0949997,30.3641661 15.0909455,30.3641661 Z M9.56982107,30.2775401 C9.56429258,30.2775401 9.55876408,30.2775401 9.55323559,30.2768028 C8.94804958,30.2222472 8.32959519,30.1529466 7.71445789,30.0703756 C7.6134707,30.0567367 7.54270597,29.9638442 7.55634293,29.8632108 C7.56997988,29.7625777 7.66249005,29.6910653 7.76347723,29.705073 C8.3734546,29.7869067 8.98674905,29.8558385 9.58640654,29.9096571 C9.68776231,29.9188725 9.76258128,30.0084474 9.75336713,30.109818 C9.74452153,30.2052906 9.66417407,30.2775401 9.56982107,30.2775401 Z M18.7430698,29.9008102 C18.6564567,29.9008102 18.5794263,29.8396192 18.5624722,29.7515189 C18.5429382,29.6516229 18.608543,29.5550444 18.7084245,29.5355075 C19.3136105,29.4179176 19.9128995,29.2793164 20.4897059,29.1233901 C20.5873759,29.0972181 20.6894688,29.1547228 20.7156371,29.2535129 C20.7421738,29.3519346 20.6839404,29.4529365 20.5855331,29.4794773 C20.0002497,29.6376154 19.3921152,29.7784282 18.7784521,29.8974928 C18.766658,29.8997044 18.7548639,29.9008102 18.7430698,29.9008102 Z M5.91769678,29.7898555 C5.90700835,29.7898555 5.89631993,29.7891183 5.8856315,29.7872752 C5.28892253,29.6825871 4.67820804,29.5638914 4.07044206,29.4337683 C3.97092915,29.4123883 3.90753572,29.3147038 3.92891258,29.2151765 C3.95028943,29.1156489 4.04832809,29.0511403 4.14747245,29.0736262 C4.75118419,29.2026434 5.35747587,29.3206019 5.94939349,29.4241841 C6.04964356,29.441878 6.11672263,29.5373506 6.09903143,29.6376154 C6.08318309,29.7268215 6.00578415,29.7898555 5.91769678,29.7898555 Z M2.31422326,29.0209136 C2.29911203,29.0209136 2.28436938,29.0190705 2.26925816,29.0153844 C1.9563453,28.9372368 1.64085248,28.8554031 1.32277969,28.7698832 C1.22437246,28.7433424 1.16613897,28.6423406 1.19230719,28.5442876 C1.21884397,28.4458658 1.32019972,28.3879925 1.41786981,28.4137957 C1.73409977,28.4985786 2.0473812,28.5800435 2.35845122,28.6578226 C2.45722701,28.68252 2.51730333,28.7824161 2.49224082,28.8812064 C2.47196967,28.9652519 2.39678213,29.0209136 2.31422326,29.0209136 Z M22.2953126,28.9361308 C22.2193879,28.9361308 22.1486231,28.889316 22.1217178,28.8137488 C22.0874411,28.7179077 22.1371976,28.6124821 22.2333934,28.5782005 C22.8124112,28.3714045 23.3814777,28.1402795 23.9251131,27.891461 C24.0172547,27.8483324 24.1267189,27.8899864 24.1694726,27.9825102 C24.2118578,28.0750339 24.1713155,28.1841454 24.0784367,28.2269055 C23.5255872,28.4805162 22.9462008,28.7153273 22.3572317,28.925441 C22.336592,28.9328134 22.3155837,28.9361308 22.2953126,28.9361308 Z M25.6385782,27.3989842 C25.5748162,27.3989842 25.5128971,27.3661768 25.478989,27.306829 C25.4277583,27.2187287 25.4579807,27.105931 25.5460681,27.0550613 C26.0786465,26.7468949 26.5927967,26.4129247 27.0741443,26.0623668 C27.1567031,26.0026504 27.2716959,26.0207128 27.3317721,26.102915 C27.3918485,26.1851175 27.3734202,26.3004956 27.2912299,26.3605807 C26.7995623,26.718511 26.2747238,27.0594848 25.7307198,27.3742865 C25.7016031,27.3912431 25.6699064,27.3989842 25.6385782,27.3989842 Z M28.6062746,25.2278104 C28.5568869,25.2278104 28.5071305,25.207905 28.4710108,25.1688313 C28.4345227,25.1293889 28.4183058,25.0781507 28.4223601,25.0287556 C28.2152259,25.0055324 28.0128828,24.9764115 27.8156998,24.9413926 C27.7154497,24.9236987 27.6483707,24.8282261 27.6664305,24.7279613 C27.6837531,24.6276967 27.7799489,24.5602392 27.8798303,24.5786701 C28.1485153,24.6258536 28.4271516,24.6623468 28.7142646,24.6877816 C29.0802512,24.3335376 29.4208065,23.9652859 29.7307709,23.5896618 C29.7956386,23.5115143 29.9113684,23.500087 29.9902416,23.5649642 C30.0687461,23.6298414 30.079803,23.7459568 30.0149353,23.8244729 C29.7635732,24.1289533 29.4926768,24.4286415 29.2048265,24.7205889 C29.3618357,24.7275928 29.5206879,24.7312789 29.6813829,24.7320162 C29.7831072,24.7323847 29.8652975,24.8153242 29.864929,24.9170637 C29.8645603,25.0184341 29.7820015,25.1006365 29.6806457,25.1006365 C29.6802772,25.1006365 29.6802772,25.1006365 29.6799087,25.1006365 C29.3975867,25.0995305 29.1200564,25.088472 28.8495285,25.0685665 C28.8104605,25.105797 28.771024,25.1422906 28.7315872,25.1787841 C28.6958363,25.2115912 28.6508714,25.2278104 28.6062746,25.2278104 Z M31.5186864,24.9874701 C31.4265446,24.9874701 31.3473029,24.9189068 31.3358773,24.825277 C31.3237146,24.7242751 31.3955852,24.6324887 31.4969408,24.6199555 C32.0719043,24.5502864 32.6767219,24.4455981 33.2944391,24.3095773 C33.3943207,24.2870914 33.4923592,24.3501255 33.5141046,24.4496531 C33.5358502,24.5491804 33.4731939,24.6476021 33.3740495,24.6693507 C32.7445382,24.8079519 32.128295,24.9148518 31.5411688,24.9859955 C31.5337976,24.9871013 31.5260575,24.9874701 31.5186864,24.9874701 Z M26.084175,24.428273 C26.0598496,24.428273 26.0347871,24.4234811 26.0111988,24.4131595 C25.4045386,24.1514391 24.8645888,23.8152574 24.4053551,23.4141985 C24.3286933,23.3471096 24.3209534,23.2306256 24.3880325,23.1539526 C24.454743,23.0769109 24.5715785,23.0695385 24.6482403,23.1366274 C25.0783573,23.5126201 25.5862418,23.8281591 26.1575197,24.0747661 C26.250767,24.1149457 26.2938893,24.2236887 26.2537155,24.3169497 C26.2231245,24.386619 26.1553083,24.428273 26.084175,24.428273 Z M35.1162629,24.2074694 C35.0366524,24.2074694 34.9633077,24.155494 34.9397194,24.0755033 C34.9109714,23.977819 34.9666248,23.8753425 35.0639263,23.8462215 C35.6584239,23.670021 36.2462873,23.4927146 36.8271478,23.3143024 C36.9244493,23.2837069 37.0276481,23.339 37.0575018,23.4363157 C37.0873558,23.5336315 37.0328081,23.6368452 36.9355065,23.6667034 C36.3535401,23.8454843 35.7642025,24.0235279 35.1689677,24.1997284 C35.1512766,24.2052577 35.1335855,24.2074694 35.1162629,24.2074694 Z M38.640863,23.1248315 C38.562727,23.1248315 38.4901195,23.0746992 38.465057,22.9961831 C38.4344658,22.8992359 38.4879081,22.7956536 38.5848409,22.7646895 C39.1793385,22.5755873 39.7638848,22.3868537 40.3377427,22.1984887 C40.4350443,22.167156 40.5382427,22.2191314 40.5703081,22.3160786 C40.6020047,22.4126571 40.5492999,22.5169767 40.4527353,22.548678 C39.8777718,22.7374116 39.29212,22.9265138 38.6965167,23.1159847 C38.6780884,23.1222512 38.6592913,23.1248315 38.640863,23.1248315 Z M30.9311915,22.3850106 C30.8994948,22.3850106 30.8674295,22.3769009 30.8383127,22.3595758 C30.750594,22.3079689 30.7211087,22.1951711 30.7727078,22.1074395 C31.0911493,21.5640931 31.3465657,21.013743 31.530849,20.4722398 C31.5636514,20.3760299 31.6686927,20.3236858 31.7645201,20.3572302 C31.8610844,20.3900374 31.9123153,20.4947256 31.8795127,20.5909355 C31.687121,21.1560304 31.4213849,21.7288664 31.0904121,22.2939614 C31.0561356,22.352572 30.9942162,22.3850106 30.9311915,22.3850106 Z M23.3899547,22.0237627 C23.3232442,22.0237627 23.2594822,21.9876379 23.2263112,21.9246038 C22.9292467,21.355454 22.7490178,20.7413326 22.68931,20.0995646 C22.6800959,19.998194 22.7545463,19.9086193 22.855902,19.8990352 C22.9583635,19.8898196 23.0468194,19.9642809 23.0564022,20.0656515 C23.1113185,20.6591302 23.2786477,21.2275428 23.5532296,21.7543012 C23.6000376,21.8446132 23.5653923,21.9559365 23.4750936,22.0027513 C23.4474511,22.0171275 23.4183343,22.0237627 23.3899547,22.0237627 Z M42.1448238,21.9751048 C42.068162,21.9751048 41.9962914,21.9268155 41.9701232,21.8497739 C41.9376894,21.7531953 41.9892887,21.6488758 42.0854846,21.6160686 C42.6814563,21.4148019 43.2630541,21.2150097 43.8280664,21.0185351 C43.923525,20.9849906 44.0293036,21.0358602 44.0624747,21.1320701 C44.0960142,21.22828 44.0451521,21.3329682 43.9489562,21.3665126 C43.3832067,21.5633559 42.8005032,21.7635167 42.2034258,21.965152 C42.1842603,21.9721558 42.1643578,21.9751048 42.1448238,21.9751048 Z M45.6277761,20.764187 C45.5518512,20.764187 45.4810866,20.7173723 45.4541812,20.6418051 C45.4199045,20.5459638 45.4696609,20.4405384 45.5658568,20.4062567 C46.1680942,20.1913511 46.7463749,19.9816061 47.2981189,19.7788649 C47.3943147,19.7434774 47.4993561,19.7928725 47.5347385,19.8883452 C47.5697522,19.9838178 47.520733,20.0899805 47.4252741,20.1249994 C46.8724247,20.3277406 46.2930383,20.5378542 45.6900637,20.7534971 C45.669424,20.7608695 45.6484158,20.764187 45.6277761,20.764187 Z M49.08972,19.4939214 C49.0152695,19.4939214 48.9448734,19.4482125 48.9172311,19.3744884 C48.8811114,19.2793844 48.9293937,19.1728531 49.0248523,19.137097 C49.647361,18.9022858 50.2230618,18.6822195 50.7460572,18.4798469 C50.8411474,18.4429849 50.9476632,18.4901683 50.9845198,18.5852723 C51.0213764,18.6803764 50.9741998,18.7869077 50.8791099,18.8237697 C50.3550085,19.0265109 49.778202,19.2469458 49.1545877,19.4821256 C49.1332108,19.4902352 49.1114654,19.4939214 49.08972,19.4939214 Z M32.0634273,18.9151875 C32.0604789,18.9151875 32.0578988,18.9151875 32.0549505,18.9151875 C31.9532262,18.9103955 31.8747214,18.8245069 31.8791442,18.7227677 C31.8824613,18.6457261 31.8843042,18.5697903 31.8843042,18.4942231 C31.8843042,17.9446102 31.7914255,17.4407063 31.6078793,16.9961502 C31.5691798,16.902152 31.6137765,16.7941462 31.7077607,16.7554411 C31.8013767,16.7171046 31.9097351,16.761339 31.9484347,16.8553372 C32.1507776,17.344865 32.2532391,17.896321 32.2532391,18.4942231 C32.2532391,18.574951 32.2513962,18.6567847 32.2477106,18.7393556 C32.2429194,18.8377773 32.1610975,18.9151875 32.0634273,18.9151875 Z M23.0541907,18.4440908 C23.0368681,18.4440908 23.0188084,18.4415104 23.0011172,18.4363497 C22.9038157,18.4072287 22.8481621,18.3043837 22.8776475,18.2066993 C23.0634049,17.5852054 23.3626808,17.0193732 23.766261,16.5243161 C23.8303916,16.4454314 23.94649,16.4332669 24.0257317,16.4981441 C24.1046049,16.562284 24.1163991,16.6783994 24.0522685,16.7572842 C23.6792793,17.214742 23.4028546,17.7378142 23.230734,18.3124933 C23.2067772,18.3924839 23.1338011,18.4440908 23.0541907,18.4440908 Z M52.5299187,18.1617276 C52.4569425,18.1617276 52.387652,18.1178618 52.3589037,18.0456122 C52.3209414,17.9512454 52.3670123,17.8439769 52.461734,17.8063776 C53.5571132,17.3691939 54.167459,17.1115283 54.1685649,17.1111597 C54.2621806,17.0713487 54.3701706,17.1152145 54.4099758,17.2092127 C54.4494123,17.3028423 54.405553,17.4112166 54.3119371,17.450659 C54.3119371,17.450659 53.6986427,17.7094305 52.5981035,18.1488259 C52.5756209,18.1576728 52.5527698,18.1617276 52.5299187,18.1617276 Z M30.6344956,15.7000811 C30.5991132,15.7000811 30.5633623,15.6897597 30.5316654,15.6687484 C30.0801718,15.364268 29.5284277,15.1688992 28.8919138,15.0878028 C28.7909265,15.0749011 28.7197931,14.9823774 28.7323245,14.8813754 C28.7452243,14.780742 28.83884,14.7125473 28.9387216,14.7217628 C29.6331006,14.8102317 30.2382867,15.0262432 30.7376941,15.3627935 C30.8220958,15.4195611 30.8442099,15.534202 30.7874506,15.618616 C30.7520681,15.6716973 30.6938349,15.7000811 30.6344956,15.7000811 Z M25.3271396,15.6683798 C25.2607977,15.6683798 25.1966671,15.6326236 25.1638647,15.5695895 C25.1166882,15.4792775 25.1513335,15.3679542 25.2412637,15.3207708 C25.6754349,15.0929635 26.1505169,14.9285588 26.6536101,14.8316116 C26.7888739,14.8058082 26.9219263,14.7829538 27.0520304,14.7637855 C27.1519118,14.7494093 27.2462647,14.8183413 27.261376,14.9189747 C27.2764872,15.019608 27.2068283,15.1132376 27.1062096,15.128351 C26.9808971,15.146782 26.8533731,15.1685306 26.723269,15.1935968 C26.2555583,15.2835401 25.814753,15.436149 25.412647,15.6469998 C25.3853731,15.6617446 25.3558878,15.6683798 25.3271396,15.6683798 Z" id="Shape" fill="#B5B5B5" transform="translate(27.805253, 22.576830) rotate(-10.000000) translate(-27.805253, -22.576830) "></path>
                        <g id="Group" transform="translate(59.517594, 8.553271) rotate(-10.000000) translate(-59.517594, -8.553271) translate(48.517594, 2.053271)">
                            <polygon id="Path" fill="#E6E6E6" points="0.220312891 4.68501988 5.65200034 7.47081423 21.9470627 0.0419035399"></polygon>
                            <polygon id="Path" fill="#CCCCCC" points="6.55715898 12.1135533 5.65200034 7.47081423 21.9470627 0.0419035399"></polygon>
                            <polygon id="Path" fill="#A0A0A0" points="6.55715898 12.1135533 8.36784406 8.39928657 12.8943729 7.47081423"></polygon>
                            <polygon id="Path" fill="#DCDCDC" points="8.36784406 8.39928657 12.8943729 10.2562313 21.9470627 0.0419035399"></polygon>
                        </g>
                    </g>
                </g>
            </g>
        </g>
    </g>
</svg>