<?xml version="1.0" encoding="utf-8"?>
<!-- Generator: Adobe Illustrator 23.0.1, SVG Export Plug-In . SVG Version: 6.00 Build 0)  -->
<svg version="1.1" id="图层_1" xmlns="http://www.w3.org/2000/svg" xmlns:xlink="http://www.w3.org/1999/xlink" x="0px" y="0px"
	 viewBox="0 0 24 24" style="enable-background:new 0 0 24 24;" xml:space="preserve">
<style type="text/css">
	.st0{fill-rule:evenodd;clip-rule:evenodd;fill:#FFFFFF;}
</style>
<path class="st0" d="M14.4,4.9l-0.3,0.3c-0.7,0.7-0.7,2,0,2.7l2.8,2.8c0.7,0.7,0.7,2,0,2.7l-2.8,2.8c-0.7,0.7-0.7,2,0,2.7l0.3,0.3
	c0.7,0.7,2,0.7,2.7,0l5.8-5.8c0.7-0.7,0.7-2,0-2.7l-5.8-5.8C16.4,4.1,15.2,4.1,14.4,4.9z"/>
<path id="矩形_1_拷贝_1_" class="st0" d="M1,10.5L6.5,5c0.8-0.8,2.2-0.8,3,0l5.5,5.5c0.8,0.8,0.8,2.2,0,3L9.5,19
	c-0.8,0.8-2.2,0.8-3,0L1,13.5C0.2,12.7,0.2,11.3,1,10.5z"/>
</svg>
