<?xml version="1.0" standalone="no"?>
<!DOCTYPE svg PUBLIC "-//W3C//DTD SVG 1.1//EN" "http://www.w3.org/Graphics/SVG/1.1/DTD/svg11.dtd" >
<!--
2013-9-30: Created.
-->
<svg>
<metadata>
Created by iconfont
</metadata>
<defs>

<font id="iconfont" horiz-adv-x="1024" >
  <font-face
    font-family="iconfont"
    font-weight="500"
    font-stretch="normal"
    units-per-em="1024"
    ascent="896"
    descent="-128"
  />
    <missing-glyph />
    
    <glyph glyph-name="celve" unicode="&#58907;" d="M69.312 207.296l3.52-1.664 436.992-230.08a24.96 24.96 0 0 1 20.352-1.216l2.816 1.216 436.928 230.08a49.664 49.664 0 0 0 49.664-85.952l-3.328-1.984-437.056-230.016a124.096 124.096 0 0 0-109.888-2.88l-5.696 2.88-436.992 230.016a49.664 49.664 0 0 0 42.688 89.6z m0 198.4l3.52-1.664 436.992-230.08a24.896 24.896 0 0 1 20.352-1.216l2.816 1.216 436.928 230.08a49.664 49.664 0 0 0 49.664-85.952l-3.328-1.984-437.056-230.016a124.16 124.16 0 0 0-109.888-2.88l-5.696 2.88L26.624 316.096a49.664 49.664 0 0 0 42.688 89.6z m512 474.688l421.056-231.616a74.496 74.496 0 0 0 0-130.56L581.312 286.656a124.032 124.032 0 0 0-119.68 0L40.576 518.208a74.496 74.496 0 0 0 0 130.56L461.632 880.384a124.16 124.16 0 0 0 119.68 0z m0 0"  horiz-adv-x="1042" />

    
    <glyph glyph-name="tuichu1" unicode="&#58906;" d="M651.264 895.36a96 96 0 0 0 99.712-92.48v-122.304H323.008c-55.872 0-100.608-105.536-100.608-156.864v-278.848c0-51.584 44.8-156.864 100.608-156.864h427.968v-122.304a96.384 96.384 0 0 0-99.776-92.48H99.776a96 96 0 0 0-99.776 92.48V802.816A96.384 96.384 0 0 0 99.776 895.296z m149.76-306.624a48.576 48.576 0 0 0 32-12.288l172.096-151.552a54.976 54.976 0 0 0 17.984-40.64 54.976 54.976 0 0 0-17.984-40.64l-171.84-151.488a48.192 48.192 0 0 0-36.736-12.096 48.192 48.192 0 0 0-33.792 18.816 54.784 54.784 0 0 0-11.584 33.856v45.76H500.48a51.584 51.584 0 0 0-50.112 52.864V437.12a51.52 51.52 0 0 0 50.112 52.864h250.304v45.76a51.2 51.2 0 0 0 50.048 52.864z m0 0"  horiz-adv-x="1024" />

    
    <glyph glyph-name="che" unicode="&#58905;" d="M843.77856 416.64a26.688 26.688 0 0 0-27.328-25.6H213.05856a26.688 26.688 0 0 0-27.328 25.6V726.144a105.472 105.472 0 0 0 108.224 102.4h441.6a105.472 105.472 0 0 0 108.224-102.4V416.64z m-46.08-300.8h-136.32a41.344 41.344 0 0 0-40.832 41.792 41.28 41.28 0 0 0 40.832 41.728h136.128a41.344 41.344 0 0 0 40.896-41.728 41.28 41.28 0 0 0-40.896-41.792z m-435.648 0H226.05056a41.28 41.28 0 0 0-40.896 41.792 41.344 41.344 0 0 0 40.896 41.728h136a41.344 41.344 0 0 0 40.896-41.728 41.28 41.28 0 0 0-40.896-41.792z m633.6 498.688a259.072 259.072 0 0 1-75.456 114.432V811.584A82.624 82.624 0 0 1 838.46656 895.168H185.15456a82.624 82.624 0 0 1-81.6-83.52v-82.816a259.2 259.2 0 0 1-75.52-114.304 41.6 41.6 0 0 1-27.968-39.488v-111.36a41.28 41.28 0 0 1 40.832-41.728 41.344 41.344 0 0 1 40.896 41.728V575.104a42.304 42.304 0 0 1-13.312 30.656 213.184 213.184 0 0 0 35.072 64v-609.536a82.624 82.624 0 0 1 81.6-83.2h43.328a81.856 81.856 0 0 1-2.496-19.2 83.648 83.648 0 0 1 46.4-75.712 80.32 80.32 0 0 1 86.656 10.048 84.48 84.48 0 0 1 27.904 84.672h249.6a85.056 85.056 0 0 1-2.432-19.2 83.584 83.584 0 0 1 46.272-75.904 80.192 80.192 0 0 1 86.976 10.496 84.416 84.416 0 0 1 27.712 84.864h43.328a82.624 82.624 0 0 1 81.728 83.2V669.824a217.6 217.6 0 0 0 35.072-64 42.24 42.24 0 0 1-13.44-30.784v-111.36a41.408 41.408 0 0 1 40.96-41.856 41.408 41.408 0 0 1 40.896 41.856V575.104a41.664 41.664 0 0 1-27.968 39.424z m0 0"  horiz-adv-x="1024" />

    
    <glyph glyph-name="jie" unicode="&#58903;" d="M378.804535 383.564862A292.14668 292.14668 0 0 0 333.071869 549.977528a327.09334 327.09334 0 1 0 326.6619-308.171604 338.988764 338.988764 0 0 0-189.402268 55.470889l-150.202839-141.758938 71.865618-67.797753-91.465332-86.288049-71.865618 67.797753-45.732666-43.144024 71.865618-67.797753L163.33095-128 0 26.085802zM659.6105 734.88049a185.211134 185.211134 0 1 1 195.935505-184.902962 191.066394 191.066394 0 0 1-195.935505 184.902962z m0 0"  horiz-adv-x="1024" />

    
    <glyph glyph-name="jia" unicode="&#58904;" d="M555.647315 138.339811v-66.698142a30.05573 30.05573 0 0 0-14.708123-21.678494 46.746252 46.746252 0 0 0-29.927834-6.394836 46.682304 46.682304 0 0 0-29.927833 6.394836 30.05573 30.05573 0 0 0-14.772071 21.678494v130.646503a78.592537 78.592537 0 0 0-55.954817 92.405383 101.166308 101.166308 0 0 0 100.782618 63.948362 101.166308 101.166308 0 0 0 100.782618-63.948362 78.592537 78.592537 0 0 0-55.954816-92.405383z m466.375402 172.660576v99.119961a115.810483 115.810483 0 0 1-127.896724 95.922542H127.896723a115.810483 115.810483 0 0 1-127.896723-95.922542v-441.243696a91.254312 91.254312 0 0 1 38.816656-69.064231A143.436175 143.436175 0 0 1 127.896723-127.173787h766.421115a115.810483 115.810483 0 0 1 127.896724 95.922542v31.142853h-167.416811v53.652675h167.161017v71.686113h-167.161017v52.949244h167.161017V257.923247h-167.161017v53.268985z m0 0M302.859441 641.10183a159.870904 159.870904 0 0 0 157.31297 160.702233h101.805792a159.870904 159.870904 0 0 0 157.632711-161.341716v-112.996755h111.65384V676.273429A217.42443 217.42443 0 0 1 616.590103 896H406.519735A217.42443 217.42443 0 0 1 191.845085 676.273429v-147.081232h111.014356z m0 0"  horiz-adv-x="1024" />

    
    <glyph glyph-name="jiank" unicode="&#58901;" d="M935.104-126.464H84.992A84.736 84.736 0 0 0 0-41.984v253.504l127.552-94.208 258.432 266.56 255.04-193.472 382.528 403.2v-633.6a84.224 84.224 0 0 0-25.6-62.336 85.312 85.312 0 0 0-63.104-24.256z m0 0M935.104 895.872a85.248 85.248 0 0 1-67.008-30.4 84.096 84.096 0 0 1-17.984-70.976l-208.256-244.608h-4.224a86.464 86.464 0 0 1-14.464 0l-153.088 158.72a85.44 85.44 0 0 1 0 10.56 85.184 85.184 0 0 1-92.224 77.312 84.928 84.928 0 0 1-77.76-91.648L87.552 465.408h-2.56a84.992 84.992 0 0 1-78.912-56.384 84.16 84.16 0 0 1 25.6-93.12 85.44 85.44 0 0 1 96.832-8.128 84.288 84.288 0 0 1 41.216 87.488l212.544 239.552h11.072l158.976-166.4v-3.392a84.736 84.736 0 0 1 84.992-84.48 84.736 84.736 0 0 1 84.992 84.48 85.504 85.504 0 0 1 0 10.112l212.544 251.328a84.736 84.736 0 0 1 85.248 84.544 84.736 84.736 0 0 1-84.992 84.48z m0 0"  horiz-adv-x="1024" />

    
    <glyph glyph-name="gaoj1" unicode="&#58902;" d="M758.783526 832.831399a534.847666 534.847666 0 0 1-252.863842 63.231961 740.287537 740.287537 0 0 1-164.351897-25.599984 585.087634 585.087634 0 0 1-227.583858-164.287897 468.031707 468.031707 0 0 1-101.119937-227.519858c0-25.279984-12.799992-63.23196-12.799992-101.055937v-63.23196a499.199688 499.199688 0 0 1 455.103716-442.303724h101.119936a468.863707 468.863707 0 0 1 176.95989 50.559968A508.991682 508.991682 0 0 1 1023.99936 377.471684 553.791654 553.791654 0 0 1 758.527526 832.3834zM505.599684 74.559873a63.23196 63.23196 0 0 0-63.23196 63.231961 63.23196 63.23196 0 0 0 63.23196 63.23196 63.23196 63.23196 0 0 0 63.23196-63.23196 59.711963 59.711963 0 0 0-17.407989-45.823971 59.711963 59.711963 0 0 0-45.887971-17.34399z m63.23196 265.343835a63.23196 63.23196 0 0 0-63.23196-61.183962 63.23196 63.23196 0 0 0-63.23196 61.183962V630.591526a81.535949 81.535949 0 0 0 75.839952 75.839952 65.727959 65.727959 0 0 0 50.559969-25.599984 73.151954 73.151954 0 0 0 12.799992-50.559968z m0 0"  horiz-adv-x="1024" />

    
    <glyph glyph-name="shangc" unicode="&#58898;" d="M446.602266 781.441292A59.215557 59.215557 0 0 0 511.739378 831.884173a59.215557 59.215557 0 0 0 65.137113-50.442881v-634.264407a59.215557 59.215557 0 0 0-65.137113-50.442882 59.215557 59.215557 0 0 0-65.137112 50.442882zM65.137112-127.627161a59.288662 59.288662 0 0 0-65.210218 50.442881 59.288662 59.288662 0 0 0 65.210218 50.442882h893.131427a59.288662 59.288662 0 0 0 65.210218-50.442882 59.288662 59.288662 0 0 0-65.210218-50.442881z m0 0M511.88559 716.157968l312.818971-372.83869a56.218226 56.218226 0 0 1 60.970092-20.835103 69.52345 69.52345 0 0 1 44.813748 53.440212 84.071469 84.071469 0 0 1-17.54535 72.666992L555.968282 873.993014a55.633381 55.633381 0 0 1-88.384701 0L110.608811 448.591379a84.875631 84.875631 0 0 1 0-105.272101 55.706487 55.706487 0 0 1 88.384702 0z m0 0"  horiz-adv-x="1024" />

    
    <glyph glyph-name="xiazai" unicode="&#58899;" d="M446.511097 845.210733A59.203468 59.203468 0 0 0 511.634912 895.643317a59.203468 59.203468 0 0 0 65.123815-50.432584v-634.134928a59.203468 59.203468 0 0 0-65.123815-50.432584 59.203468 59.203468 0 0 0-65.123815 50.432584zM65.123815-127.626507A59.276559 59.276559 0 0 0 0-77.193922a59.276559 59.276559 0 0 0 65.196906 50.432584h892.876012a59.276559 59.276559 0 0 0 65.196906-50.432584 59.276559 59.276559 0 0 0-65.196906-50.432585z m0 0M511.781093 212.537619l312.755113 404.849397a53.794756 53.794756 0 0 0 60.957645 22.585027 74.040881 74.040881 0 0 0 44.8046-58.034017 97.210633 97.210633 0 0 0-17.541768-78.864867l-356.901897-462.006326a53.063849 53.063849 0 0 0-88.366658 0L110.732413 502.926977a98.453175 98.453175 0 0 0 0 114.313858 53.063849 53.063849 0 0 0 88.366658 0z m0 0"  horiz-adv-x="1024" />

    
    <glyph glyph-name="bianji" unicode="&#58900;" d="M968.963626 472.475233a53.811003 53.811003 0 0 1-54.615244-54.615244v-354.816304a82.983001 82.983001 0 0 0-81.886309-81.88631H191.043685a82.983001 82.983001 0 0 0-81.88631 81.88631V711.334674a82.983001 82.983001 0 0 0 81.88631 81.886309H552.73259a53.811003 53.811003 0 0 1 54.615244 54.615244A48.327545 48.327545 0 0 1 552.73259 895.57887H191.043685A190.751234 190.751234 0 0 1 0 704.754524v-641.418388a190.751234 190.751234 0 0 1 191.043685-191.043685h641.418388A190.751234 190.751234 0 0 1 1023.57887 63.043685V417.859989c-6.799488 34.143667-27.271066 54.615244-54.615244 54.615244z m0 0M254.286237 122.118808a1156.936575 1156.936575 0 0 1 132.699689 27.563517l609.687443 628.03875c20.471577 20.471577-13.745202 63.388777-34.143667 83.860354a53.591665 53.591665 0 0 1-75.086821 0l-593.675745-607.347834a662.474867 662.474867 0 0 1-39.480899-132.114787z"  horiz-adv-x="1024" />

    
    <glyph glyph-name="yonghu" unicode="&#58897;" d="M675.19474 378.292334a283.087501 283.087501 0 0 1 124.038115 234.365074A283.406365 283.406365 0 0 1 515.762717 896a283.406365 283.406365 0 0 1-283.406365-283.342592 283.023728 283.023728 0 0 1 124.101887-234.365074C185.228246 313.818023 1.626328 99.796475 1.626328-94.009093v-3.571277c6.377281-25.126487 35.840319-30.292084 61.732079-30.41963h909.59158c31.121131 0 49.296382 12.754562 49.360155 43.939466v13.711154c-9.502149 183.474373-182.709099 386.845862-347.115402 448.641714z m-82.203151-219.314692l-68.491997-97.891262c-6.887463-9.821013-13.137199-7.2701-22.001619 4.719188L440.957212 149.85813a51.018247 51.018247 0 0 0-2.423367 43.620602L507.025842 367.514729c4.336551 11.096469 16.58093 9.119512 21.937846-4.782961l61.540761-160.26107a55.099707 55.099707 0 0 0 2.48714-43.493056z"  horiz-adv-x="1024" />

    
    <glyph glyph-name="toux" unicode="&#58895;" d="M0 384.292571a511.341714 511.341714 0 0 1 511.597714-511.049142 511.305143 511.305143 0 0 1 511.597715 511.049142A511.341714 511.341714 0 0 1 511.597714 895.341714 511.341714 511.341714 0 0 1 0 384.292571z m0 0M805.741714 167.460571v-51.2c-65.828571-56.905143-294.217143-51.2-294.217143-51.2v-0.402285s-228.278857-5.851429-294.217142 51.2v51.2s-2.084571 33.755429 76.8 63.890285c25.856 10.971429 133.302857 43.885714 140.726857 76.8v51.2c-17.664 23.698286-63.963429 69.997714-63.963429 89.453715a30.464 30.464 0 0 0-12.8 25.6 49.664 49.664 0 0 0 12.8 38.326857V550.656c0 7.643429 16.128 153.344 140.726857 153.344s140.726857-145.627429 140.726857-153.234286v-38.326857a49.590857 49.590857 0 0 0 12.8-38.326857 30.464 30.464 0 0 0-12.8-25.6c0-19.456-46.299429-65.828571-63.963428-89.380571v-51.2c7.314286-32.731429 114.870857-65.499429 140.726857-76.8 78.848-30.134857 76.8-63.853714 76.8-63.853715z m0 0M524.288 205.458286c0-22.381714 25.6-58.002286 25.6-76.8s-38.363429-38.326857-38.363429-38.326857-38.363429 19.638857-38.363428 38.326857 25.6 54.272 25.6 76.8c-12.470857 5.997714-25.965714 51.2 12.8 51.2s25.270857-45.129143 12.8-51.2z m0 0"  horiz-adv-x="1024" />

    
    <glyph glyph-name="toux1" unicode="&#58896;" d="M0 384.292571a511.341714 511.341714 0 0 1 511.597714-511.049142 511.305143 511.305143 0 0 1 511.597715 511.049142A511.341714 511.341714 0 0 1 511.597714 895.341714 511.341714 511.341714 0 0 1 0 384.292571z m0 0M805.741714 167.460571v-51.2c-65.828571-56.905143-294.217143-51.2-294.217143-51.2v-0.402285s-228.278857-5.851429-294.217142 51.2v51.2s-2.084571 33.755429 76.8 63.890285c25.856 10.971429 133.302857 43.885714 140.726857 76.8v51.2c-17.664 23.698286-63.963429 69.997714-63.963429 89.453715a30.464 30.464 0 0 0-12.8 25.6 49.664 49.664 0 0 0 12.8 38.326857V550.656c0 7.643429 16.128 153.344 140.726857 153.344s140.726857-145.627429 140.726857-153.234286v-38.326857a49.590857 49.590857 0 0 0 12.8-38.326857 30.464 30.464 0 0 0-12.8-25.6c0-19.456-46.299429-65.828571-63.963428-89.380571v-51.2c7.314286-32.731429 114.870857-65.499429 140.726857-76.8 78.848-30.134857 76.8-63.853714 76.8-63.853715z m0 0M524.288 205.458286c0-22.381714 25.6-58.002286 25.6-76.8s-38.363429-38.326857-38.363429-38.326857-38.363429 19.638857-38.363428 38.326857 25.6 54.272 25.6 76.8c-12.470857 5.997714-25.965714 51.2 12.8 51.2s25.270857-45.129143 12.8-51.2z m0 0"  horiz-adv-x="1024" />

    
    <glyph glyph-name="xuanze" unicode="&#58892;" d="M70.912 405.312a476.544 441.088 90 1 1 882.176 0 476.544 441.088 90 1 1-882.176 0ZM512 895.936a513.344 513.344 0 0 1-512-512 513.344 513.344 0 0 1 512-512 513.344 513.344 0 0 1 512 512 513.344 513.344 0 0 1-512 512z m0-938.752a422.4 422.4 0 0 0-426.752 426.752 422.4 422.4 0 0 0 426.752 426.816 499.2 499.2 0 0 0 98.688-11.072 415.616 415.616 0 0 0 328.064-415.68 422.4 422.4 0 0 0-426.752-426.752z m298.752 631.552a52.416 52.416 0 0 1-76.8 0l-307.2-315.776-136.704 145.024a41.344 41.344 0 0 1-59.776 0 41.344 41.344 0 0 1 0-59.776l170.752-170.752a44.8 44.8 0 0 1 34.048-18.304 44.8 44.8 0 0 1 34.048 18.304l341.248 341.248a41.344 41.344 0 0 1 0.384 60.032z"  horiz-adv-x="1024" />

    
    <glyph glyph-name="sanj" unicode="&#58887;" d="M853.333333 384L170.666667-128V896z"  horiz-adv-x="1024" />

    
    <glyph glyph-name="tingy" unicode="&#58881;" d="M512-128a512 512 0 0 0-512 512 512 512 0 0 0 512 512 512 512 0 0 0 512-512 512 512 0 0 0-512-512zM512 793.6A409.014857 409.014857 0 0 1 102.4 384 409.014857 409.014857 0 0 1 512-25.6 409.014857 409.014857 0 0 1 921.6 384 409.014857 409.014857 0 0 1 512 793.307429z m204.8-460.214857H307.2a51.2 51.2 0 0 0-51.2 51.2 51.2 51.2 0 0 0 51.2 51.2h409.6a51.2 51.2 0 0 0 51.2-51.2 50.468571 50.468571 0 0 0-51.2-51.565714z"  horiz-adv-x="1024" />

    
    <glyph glyph-name="dongjie" unicode="&#58882;" d="M512 796.013714a409.6 409.6 0 0 0 160.329143-32.329143 411.940571 411.940571 0 0 0 130.998857-88.283428 409.6 409.6 0 0 0 88.283429-130.998857A409.014857 409.014857 0 0 0 924.013714 384a409.6 409.6 0 0 0-32.329143-160.329143 411.940571 411.940571 0 0 0-88.283428-130.998857 409.6 409.6 0 0 0-130.998857-88.283429A409.014857 409.014857 0 0 0 512-28.013714a409.6 409.6 0 0 0-160.329143 32.329143 411.940571 411.940571 0 0 0-130.998857 88.283428A409.161143 409.161143 0 0 0 132.388571 223.597714 408.941714 408.941714 0 0 0 99.986286 384a409.6 409.6 0 0 0 32.329143 160.329143 411.867429 411.867429 0 0 0 88.283428 130.998857A409.161143 409.161143 0 0 0 351.597714 763.611429 408.941714 408.941714 0 0 0 512 796.013714zM512 896.073143a512 512 0 0 1-512-512 512 512 0 0 1 512-512 512 512 0 0 1 512 512 512 512 0 0 1-512 512zM818.761143 760.905143l-687.542857-687.542857 70.729143-70.729143 687.542857 687.542857z"  horiz-adv-x="1024" />

    
    <glyph glyph-name="zhengc" unicode="&#58883;" d="M512 895.926857a513.389714 513.389714 0 0 1-512-512 513.389714 513.389714 0 0 1 512-512 513.389714 513.389714 0 0 1 512 512 513.389714 513.389714 0 0 1-512 512z m0-938.715428a422.619429 422.619429 0 0 0-426.715429 426.715428A422.619429 422.619429 0 0 0 512 810.715429 422.619429 422.619429 0 0 0 938.715429 384 422.619429 422.619429 0 0 0 512-42.715429z m298.715429 631.515428a52.443429 52.443429 0 0 1-76.8 0l-307.2-315.757714-136.704 145.042286a41.325714 41.325714 0 0 1-59.757715 0 41.325714 41.325714 0 0 1 0-59.757715l170.715429-170.715428a45.129143 45.129143 0 0 1 34.084571-18.285715 45.056 45.056 0 0 1 34.084572 18.285715L810.422857 528.822857a41.325714 41.325714 0 0 1 0.292572 59.904z"  horiz-adv-x="1024" />

    
    <glyph glyph-name="tuichu" unicode="&#58884;" d="M511.99936 895.99936a79.615801 79.615801 0 0 1-79.9358-79.359802v-396.799008a79.9998 79.9998 0 0 1 159.9996 0v396.799008A79.615801 79.615801 0 0 1 512.12736 895.99936z m0 0M511.99936-127.99808a510.782723 510.782723 0 0 0-511.99872 508.286729 504.574739 504.574739 0 0 0 195.135512 399.295002 60.351849 60.351849 0 0 0 84.22379-9.855975 59.199852 59.199852 0 0 0-9.919976-83.583791 386.431034 386.431034 0 0 1-149.439626-305.855236A391.167022 391.167022 0 0 1 511.99936-9.022377a391.167022 391.167022 0 0 1 392.06302 389.311026 386.367034 386.367034 0 0 1-149.567626 305.919235 59.199852 59.199852 0 0 0-9.983975 83.583792 60.287849 60.287849 0 0 0 84.159789 9.919975A504.382739 504.382739 0 0 0 1023.99808 380.288649 510.782723 510.782723 0 0 0 511.99936-127.99808z m0 0"  horiz-adv-x="1024" />

    
    <glyph glyph-name="zhuti" unicode="&#58885;" d="M824.393867 383.846991a90.333132 90.333132 0 0 0-90.333132 90.333132 90.333132 90.333132 0 0 0 90.333132 90.333133 90.333132 90.333132 0 0 0 90.333132-90.333133 90.333132 90.333132 0 0 0-90.333132-90.333132z m-169.782755 219.526797a90.333132 90.333132 0 0 0-90.333132 90.333132 90.333132 90.333132 0 0 0 90.333132 90.333133 90.333132 90.333132 0 0 0 90.333133-90.333133 90.333132 90.333132 0 0 0-90.397154-90.333132z m-286.044249 0a90.333132 90.333132 0 0 0-90.333133 90.333132 90.333132 90.333132 0 0 0 90.333133 90.333133 90.333132 90.333132 0 0 0 90.333132-90.333133 90.333132 90.333132 0 0 0-26.440527-64.020646 90.333132 90.333132 0 0 0-63.956626-26.312486zM200.576686 383.846991a90.333132 90.333132 0 0 0-90.333132 90.333132 90.333132 90.333132 0 0 0 90.333132 90.333133 90.333132 90.333132 0 0 0 90.333132-90.333133 90.333132 90.333132 0 0 0-26.440527-64.020647 90.333132 90.333132 0 0 0-63.956626-26.312485zM513.701669 895.692061A510.88476 510.88476 0 0 1 0 385.383486c0-183.355132 133.355007-513.381566 502.498056-513.381565 0 0 90.333132-1.472475 90.333132 80.986118s-41.229296 56.338169-41.229296 115.621288a79.065499 79.065499 0 0 0 60.243428 85.787666 679.771226 679.771226 0 0 1 222.79185 18.373926A296.543635 296.543635 0 0 1 1024.330347 441.657635 495.071661 495.071661 0 0 1 513.637648 895.692061z"  horiz-adv-x="1024" />

    
    <glyph glyph-name="renyuan" unicode="&#58886;" d="M378.88 307.2C158.72 307.2 0 179.2 0-8.512v-21.312c0-98.112 174.08-98.112 394.24-98.112h235.52c209.92 0 394.24 0 394.24 98.112v21.312C1024 179.2 860.16 307.2 645.12 307.2z m122.88 51.2c174.08 0 248.32 119.488 248.32 268.8S675.84 896 501.76 896 253.44 776.512 253.44 627.2s74.24-268.8 248.32-268.8z"  horiz-adv-x="1024" />

    
    <glyph glyph-name="xit" unicode="&#58888;" d="M512 192a192.512 192.512 0 0 0-192 192 192.512 192.512 0 0 0 192 192 198.4 198.4 0 0 0 140.8-57.6 188.16 188.16 0 0 0 57.6-140.8A192.896 192.896 0 0 0 512 192m454.4 281.6l-89.6 19.2v6.4a227.328 227.328 0 0 1-25.6 57.6l-6.4 6.4 51.2 83.2a67.264 67.264 0 0 1 0 76.8l-44.8 44.8a47.04 47.04 0 0 1-38.4 12.8 68.608 68.608 0 0 1-38.4-12.8l-83.2-51.2-6.4 6.4a227.328 227.328 0 0 1-57.6 25.6h-6.4L601.6 838.4C595.2 870.4 576 896 544 896h-64c-25.6 0-44.8-25.6-51.2-57.6l-25.6-89.6h-6.4a267.392 267.392 0 0 1-64-25.6l-6.4-6.4L243.2 768c-6.4 12.8-25.6 12.8-38.4 12.8a46.976 46.976 0 0 1-38.4-12.8l-44.8-44.8a67.264 67.264 0 0 1 0-76.8l51.2-83.2v-6.4a403.776 403.776 0 0 1-25.6-57.6v-6.4l-89.6-19.2a67.52 67.52 0 0 1-57.6-57.6v-64c0-25.6 25.6-44.8 57.6-51.2l89.6-25.6v-6.4c6.4-19.2 12.8-32 19.2-51.2v-6.4L115.2 128a67.264 67.264 0 0 1 0-76.8l51.2-51.2a47.04 47.04 0 0 1 38.4-12.8 68.608 68.608 0 0 1 38.4 12.8l83.2 51.2 6.4-6.4a192 192 0 0 1 64-25.6h6.4l25.6-89.6c6.4-32 25.6-57.6 51.2-57.6h64c32 0 51.2 25.6 57.6 57.6l19.2 96h6.4a227.328 227.328 0 0 1 57.6 25.6l6.4 6.4 83.2-51.2a90.944 90.944 0 0 1 38.4-12.8 47.04 47.04 0 0 1 38.4 12.8l44.8 44.8a67.264 67.264 0 0 1 0 76.8l-51.2 83.2 6.4 6.4c6.4 19.2 19.2 38.4 25.6 57.6v6.4l89.6 25.6c25.6 6.4 57.6 25.6 57.6 51.2v64c0 19.2-25.6 44.8-57.6 51.2"  horiz-adv-x="1024" />

    
    <glyph glyph-name="gaoj" unicode="&#58889;" d="M758.467185 832.791103A534.391269 534.391269 0 0 1 505.698131 895.99936a739.43425 739.43425 0 0 1-164.290288-25.590387 584.868309 584.868309 0 0 1-227.498546-164.290289 468.112165 468.112165 0 0 1-101.082031-227.498546c0-25.270508-12.795194-63.208257-12.795194-101.082031v-63.208257a499.012558 499.012558 0 0 1 454.933116-442.32985h101.082031a468.559997 468.559997 0 0 1 176.893554 50.541016 508.99281 508.99281 0 0 1 290.642828 454.933115A553.839964 553.839964 0 0 1 758.211281 832.407247zM505.698131 74.547918a63.208257 63.208257 0 1 0 63.208258 63.208257 59.689579 59.689579 0 0 0-63.208258-63.208257z m63.208258 265.372319a63.208257 63.208257 0 0 0-126.352539 0V630.563065a81.505385 81.505385 0 0 0 75.811523 75.811523 65.70332 65.70332 0 0 0 50.541016-25.590388c0-12.795194 12.795194-25.590388 12.795193-50.541015z m0 0"  horiz-adv-x="1024" />

    
    <glyph glyph-name="shouy" unicode="&#58890;" d="M56.896 327.04h341.312a57.152 57.152 0 0 1 57.024 56.896V839.04a57.152 57.152 0 0 1-57.024 56.896H56.896A57.088 57.088 0 0 1 0 839.04V384a57.088 57.088 0 0 1 56.896-56.896m0-455.104h341.312a57.152 57.152 0 0 1 57.024 56.768v227.648a57.152 57.152 0 0 1-57.024 56.896H56.896a57.088 57.088 0 0 1-56.896-56.896v-227.584a57.024 57.024 0 0 1 56.896-56.768m568.896 0h341.376a57.024 57.024 0 0 1 56.768 56.768V384a57.024 57.024 0 0 1-56.768 56.832H625.792A57.024 57.024 0 0 1 568.896 384v-455.232a57.024 57.024 0 0 1 56.896-56.768M568.896 839.104v-227.584a57.152 57.152 0 0 1 56.896-56.896h341.376a57.088 57.088 0 0 1 56.768 56.896V839.04a57.088 57.088 0 0 1-56.896 56.896H625.728a57.088 57.088 0 0 1-56.896-56.896"  horiz-adv-x="1024" />

    
    <glyph glyph-name="peiz" unicode="&#58891;" d="M909.127192 833.091932a62.844072 62.844072 0 0 0-46.397101 20.926692A127.992 127.992 0 0 1 768.144003 895.936004a127.992 127.992 0 0 1-94.586088-41.91738 62.844072 62.844072 0 0 0-46.397101-20.926692h-563.164802a63.996 63.996 0 0 1-63.996-63.996 63.996 63.996 0 0 1 63.996-63.996001h563.164802a62.844072 62.844072 0 0 0 46.397101-20.926692A127.992 127.992 0 0 1 768.144003 642.255859a127.992 127.992 0 0 1 94.586088 41.91738 62.844072 62.844072 0 0 0 46.397101 20.926692h51.1968a63.996 63.996 0 0 1 63.996 63.996001 63.996 63.996 0 0 1-63.996 63.996z m-396.775202-320.811949a127.992 127.992 0 0 1-94.778076-42.941317 64.443972 64.443972 0 0 0-48.252985-21.246672H64.188a63.996 63.996 0 0 1-63.996-63.996 63.996 63.996 0 0 1 63.996-63.996h307.180801a62.844072 62.844072 0 0 0 46.397101-20.926692 127.992 127.992 0 0 1 94.586088-41.91738 127.992 127.992 0 0 1 94.586088 41.91738 62.844072 62.844072 0 0 0 46.397101 20.926692h307.180801a63.996 63.996 0 0 1 63.996 63.996 63.996 63.996 0 0 1-63.996 63.996H655.511043a64.443972 64.443972 0 0 0-48.252985 21.246672 127.992 127.992 0 0 1-94.778076 42.941317z m-255.984001-384.935942a127.992 127.992 0 0 1-94.778076-42.941316 64.443972 64.443972 0 0 0-48.252985-21.246672h-49.020936a63.996 63.996 0 0 1-63.996-63.996001 63.996 63.996 0 0 1 63.996-63.996h51.1968a62.844072 62.844072 0 0 0 46.397101-20.926692 127.992 127.992 0 0 1 94.586088-41.91738 127.992 127.992 0 0 1 94.586088 41.91738 62.844072 62.844072 0 0 0 46.397101 20.926692h563.164802a63.996 63.996 0 0 1 63.996 63.996 63.996 63.996 0 0 1-63.996 63.996001H399.655034a64.443972 64.443972 0 0 0-48.252985 21.246672 127.992 127.992 0 0 1-94.778076 42.941316z m0 0"  horiz-adv-x="1024" />

    
    <glyph glyph-name="sheb" unicode="&#58893;" d="M930.88 896H93.12A93.056 93.056 0 0 1 27.328 868.736 93.056 93.056 0 0 1 0 802.944v-376.32h1024v376.32a93.056 93.056 0 0 1-27.264 65.792A93.056 93.056 0 0 1 930.88 896zM204.992 576a85.184 85.184 0 0 0-85.184 85.184A85.184 85.184 0 0 0 204.8 746.112a85.184 85.184 0 0 0 85.184-85.184A85.184 85.184 0 0 0 204.8 575.744z m385.408 65.856a23.232 23.232 0 0 0-6.784-16.448 23.232 23.232 0 0 0-16.448-6.848H443.328a23.232 23.232 0 0 0-16.448 6.848 23.232 23.232 0 0 0-6.784 16.448v38.4a23.296 23.296 0 0 0 6.784 16.448 23.296 23.296 0 0 0 16.448 6.848h123.84a23.296 23.296 0 0 0 16.448-6.848 23.232 23.232 0 0 0 6.784-16.448z m276.928 0a23.232 23.232 0 0 0-6.848-16.448 23.232 23.232 0 0 0-16.448-6.848h-122.56a23.232 23.232 0 0 0-16.448 6.848 23.232 23.232 0 0 0-6.848 16.448v38.4a23.232 23.232 0 0 0 6.848 16.448 23.232 23.232 0 0 0 16.448 6.848h123.84a23.296 23.296 0 0 0 16.448-6.848 23.296 23.296 0 0 0 6.848-16.448zM0 341.44v-376.32a93.056 93.056 0 0 1 27.264-65.792 93.056 93.056 0 0 1 65.792-27.264h837.824a93.056 93.056 0 0 1 65.792 27.264A93.056 93.056 0 0 1 1024-34.88v376.32z m204.096-319.552a85.184 85.184 0 0 0-85.184 85.184 85.184 85.184 0 0 0 85.184 85.184 85.184 85.184 0 0 0 85.184-85.184 85.184 85.184 0 0 0-84.48-85.184z m385.408 65.6a23.296 23.296 0 0 0-6.784-16.448 23.296 23.296 0 0 0-16.448-6.848H443.328a23.296 23.296 0 0 0-16.448 6.848 23.296 23.296 0 0 0-6.784 16.448v38.4a23.296 23.296 0 0 0 6.784 16.448 23.296 23.296 0 0 0 16.448 6.848h123.84a23.296 23.296 0 0 0 16.448-6.848 23.296 23.296 0 0 0 6.784-16.448z m276.928 0a23.296 23.296 0 0 0-6.784-16.448 23.296 23.296 0 0 0-16.448-6.848h-121.6a23.296 23.296 0 0 0-16.448 6.848 23.296 23.296 0 0 0-6.848 16.448v38.4a23.232 23.232 0 0 0 6.848 16.448 23.232 23.232 0 0 0 16.448 6.848h123.84a23.232 23.232 0 0 0 16.448-6.848 23.296 23.296 0 0 0 6.848-16.448z"  horiz-adv-x="1024" />

    
    <glyph glyph-name="shuj" unicode="&#58894;" d="M192 320H64a64 64 0 0 1-64-64v-320a64 64 0 0 1 64-64h128a64 64 0 0 1 64 64v320a64 64 0 0 1-64 64z m384 576H448a64 64 0 0 1-64-64v-896a64 64 0 0 1 64-64h128a64 64 0 0 1 64 64V832a64 64 0 0 1-64 64z m384-320h-128a64 64 0 0 1-64-64v-576a64 64 0 0 1 64-64h128a64 64 0 0 1 64 64V512a64 64 0 0 1-64 64z m0 0"  horiz-adv-x="1024" />

    


  </font>
</defs>
</svg>
